<svg width="28" height="28" viewBox="0 0 28 28" fill="none" xmlns="http://www.w3.org/2000/svg">
<path d="M17.9575 8.68946C17.6244 8.68964 17.3017 8.80529 17.0444 9.01671C16.7871 9.22813 16.611 9.52223 16.5462 9.84891C16.4814 10.1756 16.5319 10.5146 16.689 10.8083C16.8461 11.1019 17.1002 11.332 17.408 11.4593C17.7157 11.5866 18.0581 11.6033 18.3768 11.5064C18.6954 11.4096 18.9707 11.2053 19.1556 10.9283C19.3405 10.6513 19.4236 10.3188 19.3909 9.98735C19.3581 9.65592 19.2114 9.34611 18.9758 9.11071C18.8422 8.97684 18.6835 8.8707 18.5087 8.79841C18.3339 8.72612 18.1466 8.68909 17.9575 8.68946Z" fill="white"/>
<path d="M25.9721 2.93248C25.9718 2.93087 25.9718 2.92923 25.9721 2.92762C25.9265 2.72769 25.8259 2.54448 25.6817 2.39866C25.5375 2.25284 25.3554 2.15023 25.156 2.10239C23.5487 1.71026 21.0201 2.12828 18.2181 3.25017C15.3939 4.38285 12.7478 6.0549 10.9592 7.84669C10.3859 8.41692 9.85334 9.02665 9.36536 9.67139C8.16094 9.61745 7.1 9.78897 6.20626 10.1789C3.09193 11.5495 2.2025 15.057 1.96572 16.4971C1.93146 16.7018 1.94487 16.9115 2.00492 17.1101C2.06497 17.3087 2.17004 17.4908 2.31195 17.6421C2.45385 17.7935 2.62877 17.91 2.82308 17.9827C3.0174 18.0554 3.22587 18.0823 3.43227 18.0613H3.43928L6.90852 17.6827C6.91283 17.7269 6.91769 17.7674 6.92146 17.8046C6.96602 18.2273 7.15455 18.6219 7.45544 18.9221L9.14853 20.6163C9.44834 20.9176 9.84284 21.1064 10.2656 21.1508L10.3815 21.1632L10.004 24.6282V24.6352C9.98468 24.8218 10.0045 25.0104 10.0623 25.1889C10.12 25.3674 10.2144 25.5319 10.3393 25.6718C10.4642 25.8118 10.617 25.9241 10.7878 26.0017C10.9586 26.0792 11.1438 26.1203 11.3314 26.1222C11.4064 26.1223 11.4812 26.1161 11.5552 26.1039C13.0034 25.8709 16.5093 24.9922 17.8761 21.8612C18.2628 20.9734 18.4338 19.9167 18.3858 18.7145C19.0334 18.2276 19.6454 17.6949 20.217 17.1206C22.0201 15.3267 23.6975 12.7021 24.8183 9.91896C25.9343 7.14875 26.3545 4.60129 25.9721 2.93248ZM20.1976 12.365C19.7544 12.8087 19.1896 13.1109 18.5746 13.2335C17.9596 13.356 17.3221 13.2935 16.7426 13.0536C16.1632 12.8138 15.668 12.4075 15.3195 11.8862C14.971 11.3648 14.7851 10.7518 14.7851 10.1247C14.7851 9.49764 14.971 8.88465 15.3195 8.36329C15.668 7.84193 16.1632 7.43564 16.7426 7.19582C17.3221 6.95599 17.9596 6.89341 18.5746 7.01599C19.1896 7.13857 19.7544 7.4408 20.1976 7.88445C20.4946 8.17704 20.7305 8.52578 20.8915 8.91039C21.0525 9.29499 21.1355 9.70778 21.1355 10.1247C21.1355 10.5417 21.0525 10.9545 20.8915 11.3391C20.7305 11.7237 20.4946 12.0724 20.1976 12.365Z" fill="white"/>
<path d="M8.9543 21.0756C8.74559 21.0497 8.53461 21.101 8.36099 21.2197C8.01634 21.4554 7.67006 21.6884 7.32055 21.9154C6.61343 22.375 5.7677 21.5681 6.18787 20.8367L6.8432 19.704C6.93689 19.567 6.98906 19.4058 6.99346 19.2398C6.99785 19.0739 6.95428 18.9102 6.86797 18.7683C6.78166 18.6265 6.65627 18.5126 6.50684 18.4403C6.35742 18.3679 6.1903 18.3402 6.02552 18.3604C5.29817 18.4524 4.62209 18.7837 4.10373 19.3022C3.90632 19.5001 3.306 20.101 2.98292 22.3906C2.89096 23.0483 2.83299 23.7103 2.80924 24.3739C2.80629 24.4891 2.82643 24.6037 2.86848 24.7109C2.91052 24.8182 2.97362 24.916 3.05405 24.9985C3.13449 25.081 3.23062 25.1465 3.3368 25.1913C3.44297 25.236 3.55702 25.259 3.67224 25.259H3.69381C4.35796 25.2355 5.02046 25.1779 5.6787 25.0864C7.96941 24.7628 8.57027 24.1619 8.76768 23.9645C9.28854 23.4459 9.61905 22.7667 9.70565 22.0368C9.73338 21.8097 9.66981 21.5809 9.52893 21.4007C9.38804 21.2205 9.18136 21.1036 8.9543 21.0756Z" fill="white"/>
</svg>
