<svg width="29" height="29" viewBox="0 0 29 29" fill="none" xmlns="http://www.w3.org/2000/svg">
<g clip-path="url(#clip0_44_385)">
<path d="M25.7799 16.0216C25.7799 15.7661 25.6784 15.521 25.4977 15.3404C25.3171 15.1597 25.072 15.0582 24.8165 15.0582H20.9632C20.7077 15.0582 20.4627 15.1597 20.282 15.3404C20.1013 15.521 19.9998 15.7661 19.9998 16.0216V24.6916H18.0731V3.81923C18.0731 2.88414 18.0706 2.27788 18.0115 1.83346C17.955 1.41601 17.8638 1.28499 17.7906 1.21178C17.7174 1.13857 17.5863 1.04737 17.1689 0.990853C16.7232 0.931768 16.1182 0.929199 15.1831 0.929199C14.248 0.929199 13.6418 0.931768 13.1974 0.990853C12.7799 1.04737 12.6489 1.13857 12.5757 1.21178C12.5025 1.28499 12.4113 1.41601 12.3547 1.83346C12.2957 2.27916 12.2931 2.88414 12.2931 3.81923V24.6916H10.3664V9.59928C10.3664 9.34379 10.2649 9.09876 10.0843 8.9181C9.90359 8.73743 9.65856 8.63594 9.40307 8.63594H5.5497C5.2942 8.63594 5.04917 8.73743 4.86851 8.9181C4.68785 9.09876 4.58636 9.34379 4.58636 9.59928V24.6916H2.33856C2.08306 24.6916 1.83803 24.7931 1.65737 24.9738C1.47671 25.1545 1.37521 25.3995 1.37521 25.655C1.37521 25.9105 1.47671 26.1555 1.65737 26.3362C1.83803 26.5168 2.08306 26.6183 2.33856 26.6183H28.0277C28.2832 26.6183 28.5282 26.5168 28.7089 26.3362C28.8895 26.1555 28.991 25.9105 28.991 25.655C28.991 25.3995 28.8895 25.1545 28.7089 24.9738C28.5282 24.7931 28.2832 24.6916 28.0277 24.6916H25.7799V16.0216Z" fill="white"/>
</g>
<defs>
<clipPath id="clip0_44_385">
<rect width="28.4751" height="28.4751" fill="white" transform="translate(0.454224 0.108887)"/>
</clipPath>
</defs>
</svg>
