<svg width="23" height="23" viewBox="0 0 23 23" fill="none" xmlns="http://www.w3.org/2000/svg">
<path d="M5.58215 17.3028C2.55233 14.0453 2.60591 8.93936 5.7536 5.76891C6.98723 4.52095 8.59128 3.70529 10.3264 3.44364L10.234 0.661621C7.79815 0.955734 5.53352 2.06562 3.80873 3.81065C-0.409167 8.05667 -0.460066 14.9133 3.64398 19.2557L1.31201 21.6024L8.69233 22.0056L8.67224 14.1913L5.58215 17.3028ZM14.4854 1.28446L14.5055 9.09875L17.5956 5.98857C20.6254 9.24877 20.5718 14.3547 17.4241 17.5225C16.1907 18.7708 14.5866 19.5865 12.8513 19.8478L12.9437 22.6284C15.3796 22.334 17.6444 21.2247 19.3703 19.4808C23.5869 15.2321 23.6378 8.37546 19.5338 4.03567L21.8657 1.68629L14.4854 1.28446Z" fill="white"/>
</svg>
