<svg width="26" height="27" viewBox="0 0 26 27" fill="none" xmlns="http://www.w3.org/2000/svg">
<path d="M3.00677 12.2913C3.33157 12.2917 3.64398 12.416 3.88016 12.639C4.11634 12.862 4.25846 13.1667 4.2775 13.491C4.29653 13.8152 4.19104 14.1345 3.98257 14.3835C3.7741 14.6326 3.47839 14.7927 3.15586 14.8311L3.00677 14.84H1.73243C1.40763 14.8396 1.09522 14.7152 0.859038 14.4923C0.622858 14.2693 0.48073 13.9646 0.461695 13.6403C0.44266 13.3161 0.548155 12.9968 0.756624 12.7477C0.965093 12.4987 1.2608 12.3386 1.58333 12.3002L1.73243 12.2913H3.00677ZM13.2015 0.822266C13.5136 0.822307 13.8148 0.9369 14.0481 1.14431C14.2813 1.35172 14.4304 1.63752 14.4669 1.94751L14.4758 2.0966V3.37094C14.4754 3.69574 14.3511 4.00815 14.1281 4.24433C13.9051 4.48051 13.6004 4.62264 13.2761 4.64167C12.9519 4.66071 12.6326 4.55521 12.3836 4.34674C12.1345 4.13828 11.9744 3.84257 11.936 3.52004L11.9271 3.37094V2.0966C11.9271 1.75863 12.0614 1.43449 12.3004 1.19551C12.5394 0.956526 12.8635 0.822266 13.2015 0.822266ZM24.6705 12.2913C24.9953 12.2917 25.3077 12.416 25.5439 12.639C25.7801 12.862 25.9222 13.1667 25.9412 13.491C25.9603 13.8152 25.8548 14.1345 25.6463 14.3835C25.4378 14.6326 25.1421 14.7927 24.8196 14.8311L24.6705 14.84H23.3962C23.0714 14.8396 22.759 14.7152 22.5228 14.4923C22.2866 14.2693 22.1445 13.9646 22.1254 13.6403C22.1064 13.3161 22.2119 12.9968 22.4204 12.7477C22.6288 12.4987 22.9245 12.3386 23.2471 12.3002L23.3962 12.2913H24.6705ZM4.14475 4.50892C4.36418 4.28951 4.65613 4.15771 4.96583 4.13823C5.27553 4.11876 5.58169 4.21296 5.82687 4.40315L5.94666 4.50892L6.8387 5.40096C7.06725 5.63029 7.19994 5.93801 7.20982 6.26163C7.2197 6.58524 7.10604 6.90049 6.8919 7.14333C6.67777 7.38618 6.37923 7.53841 6.05693 7.56911C5.73462 7.59982 5.4127 7.50669 5.15657 7.30864L5.03679 7.20287L4.14475 6.31084C3.90585 6.07186 3.77164 5.74779 3.77164 5.40988C3.77164 5.07197 3.90585 4.7479 4.14475 4.50892ZM20.4563 4.50892C20.6856 4.28037 20.9933 4.14768 21.3169 4.1378C21.6406 4.12792 21.9558 4.24159 22.1986 4.45572C22.4415 4.66985 22.5937 4.96839 22.6244 5.2907C22.6551 5.61301 22.562 5.93492 22.3639 6.19105L22.2582 6.31084L21.3661 7.20287C21.1368 7.43142 20.8291 7.56411 20.5055 7.57399C20.1819 7.58388 19.8666 7.47021 19.6238 7.25608C19.3809 7.04195 19.2287 6.74341 19.198 6.4211C19.1673 6.09879 19.2604 5.77688 19.4585 5.52075L19.5642 5.40096L20.4563 4.50892ZM15.7501 21.2117C16.0881 21.2117 16.4122 21.3459 16.6512 21.5849C16.8902 21.8239 17.0245 22.148 17.0245 22.486C17.0245 23.4999 16.6217 24.4723 15.9047 25.1893C15.1878 25.9062 14.2154 26.309 13.2015 26.309C12.1875 26.309 11.2151 25.9062 10.4982 25.1893C9.78123 24.4723 9.37845 23.4999 9.37845 22.486C9.37849 22.1739 9.49309 21.8726 9.7005 21.6394C9.90791 21.4061 10.1937 21.2571 10.5037 21.2206L10.6528 21.2117H15.7501ZM13.2015 5.91961C14.8062 5.91961 16.3703 6.42454 17.6722 7.36286C18.974 8.30118 19.9476 9.62534 20.4551 11.1478C20.9626 12.6702 20.9782 14.3137 20.4997 15.8454C20.0212 17.3772 19.0729 18.7196 17.7891 19.6825C17.6134 19.8144 17.4067 19.8987 17.1889 19.9271L17.0245 19.9373H9.37845C9.10272 19.9373 8.83443 19.8479 8.61385 19.6825C7.33004 18.7196 6.38172 17.3772 5.90323 15.8454C5.42474 14.3137 5.44034 12.6702 5.94781 11.1478C6.45528 9.62534 7.4289 8.30118 8.73076 7.36286C10.0326 6.42454 11.5967 5.91961 13.2015 5.91961Z" fill="white"/>
</svg>
