<svg width="34" height="28" viewBox="0 0 34 28" fill="none" xmlns="http://www.w3.org/2000/svg">
<path fill-rule="evenodd" clip-rule="evenodd" d="M13.8249 1.59253C11.2408 0.393619 8.09356 0.29931 5.29772 1.5912C4.46753 1.97486 3.72396 2.45504 3.07461 3.00966C1.53725 4.3232 0.529561 6.05397 0.159082 7.90777C-0.0859998 9.13429 -0.0524483 10.4145 0.291381 11.6633C0.453896 12.2535 0.685418 12.8366 0.98951 13.4038C1.27837 13.9425 1.61911 14.4415 2.00362 14.898C2.85856 15.914 3.92883 16.7202 5.12307 17.2892C6.96048 18.1645 9.09102 18.4773 11.1809 18.1245C11.7098 18.0353 12.2362 17.9032 12.7544 17.727C13.0868 17.6141 13.4159 17.4827 13.7404 17.3327L16.315 16.1429L17.6432 15.529L19.8746 14.4978L26.2601 11.5469L24.5298 8.32059L19.3885 10.6965L18.8969 10.9236L18.1393 11.2737C18.0144 10.1479 18.2966 9.01325 18.921 8.0414C19.4209 7.26348 20.14 6.58982 21.0453 6.10853L21.0499 6.09594L21.3547 5.95524C21.8865 5.70941 22.4382 5.54486 22.9934 5.45629C24.7706 5.17291 26.5799 5.66899 27.865 6.77954C28.3364 7.18684 28.7373 7.67696 29.0402 8.24151C29.3455 8.81093 29.5256 9.40839 29.5904 10.0083C29.7643 11.6242 29.2113 13.4639 27.9005 14.6058L26.3729 15.3117L19.4416 18.5148L15.9888 20.1104L12.9897 21.4964L11.0733 22.3819L9.32802 27.2146L14.2435 24.9432L14.7201 24.7227L28.1035 18.5378C28.6248 18.2968 29.1126 18.0183 29.5644 17.7075C31.5784 16.3226 32.8833 14.297 33.3047 12.1084C33.5405 10.8832 33.4993 9.60674 33.1505 8.36299C32.9884 7.78541 32.7603 7.21489 32.4626 6.65983C32.1673 6.10919 31.8178 5.6003 31.423 5.13513C30.5624 4.12154 29.4864 3.31778 28.2867 2.7519C26.5502 1.93267 24.5538 1.61153 22.5755 1.87348C22.1215 1.93356 21.6683 2.02434 21.2193 2.14714C20.6796 2.29447 20.1464 2.48796 19.6248 2.72871L17.8804 3.5349L16.9739 3.9539L13.454 5.58064L6.24165 8.91364L7.97197 12.14L14.4238 9.15836C14.4395 9.07664 14.4564 8.99514 14.4747 8.91386V9.13495L14.4238 9.15836C14.2401 10.113 14.2244 11.0985 14.3917 12.0757C13.8432 12.9179 13.0354 13.6326 12.0106 14.1064C11.1471 14.5053 10.2293 14.6871 9.33111 14.6738C7.92486 14.6531 6.56644 14.1543 5.54043 13.2638C5.0693 12.8549 4.66836 12.3632 4.36474 11.7974C4.06017 11.2295 3.8791 10.634 3.81224 10.0366C3.66685 8.74157 4.05708 7.43731 4.8856 6.38484C5.3534 5.79047 5.96111 5.27649 6.69088 4.88952C6.78796 4.83806 6.88719 4.7888 6.98855 4.7422C7.08991 4.69537 7.192 4.65142 7.29479 4.61056L13.8259 1.5923L13.8249 1.59253ZM14.4731 12.9684L14.5428 12.7754C14.5554 12.8231 14.5683 12.8706 14.5816 12.9181L14.4731 12.9684Z" fill="#FE4600"/>
</svg>
